<mxfile host="app.diagrams.net" modified="2021-02-23T10:54:24.567Z" agent="5.0 (Windows NT 10.0; Win64; x64) AppleWebKit/537.36 (KHTML, like Gecko) Chrome/88.0.4324.182 Safari/537.36" etag="PZeUwzoiwFq4-_QeSROd" version="14.4.2" type="github">
  <diagram id="xi2xNmgHW3W4Hn-h2AUv" name="Page-1">
    <mxGraphModel dx="794" dy="522" grid="1" gridSize="10" guides="1" tooltips="1" connect="1" arrows="1" fold="1" page="1" pageScale="1" pageWidth="850" pageHeight="1100" math="0" shadow="0">
      <root>
        <mxCell id="0" />
        <mxCell id="1" parent="0" />
        <mxCell id="nMVJ9ATaJGvfscwfu6Gh-7" style="edgeStyle=orthogonalEdgeStyle;rounded=0;orthogonalLoop=1;jettySize=auto;html=1;entryX=0.5;entryY=0;entryDx=0;entryDy=0;" edge="1" parent="1" source="nMVJ9ATaJGvfscwfu6Gh-1" target="nMVJ9ATaJGvfscwfu6Gh-3">
          <mxGeometry relative="1" as="geometry" />
        </mxCell>
        <mxCell id="nMVJ9ATaJGvfscwfu6Gh-15" style="edgeStyle=orthogonalEdgeStyle;rounded=0;orthogonalLoop=1;jettySize=auto;html=1;entryX=0.5;entryY=0;entryDx=0;entryDy=0;" edge="1" parent="1" source="nMVJ9ATaJGvfscwfu6Gh-21" target="nMVJ9ATaJGvfscwfu6Gh-13">
          <mxGeometry relative="1" as="geometry" />
        </mxCell>
        <mxCell id="nMVJ9ATaJGvfscwfu6Gh-23" style="edgeStyle=orthogonalEdgeStyle;rounded=0;orthogonalLoop=1;jettySize=auto;html=1;entryX=0;entryY=0.5;entryDx=0;entryDy=0;" edge="1" parent="1" source="nMVJ9ATaJGvfscwfu6Gh-1" target="nMVJ9ATaJGvfscwfu6Gh-21">
          <mxGeometry relative="1" as="geometry" />
        </mxCell>
        <mxCell id="nMVJ9ATaJGvfscwfu6Gh-1" value="APP" style="rounded=0;whiteSpace=wrap;html=1;" vertex="1" parent="1">
          <mxGeometry x="365" y="10" width="120" height="60" as="geometry" />
        </mxCell>
        <mxCell id="nMVJ9ATaJGvfscwfu6Gh-8" style="edgeStyle=orthogonalEdgeStyle;rounded=0;orthogonalLoop=1;jettySize=auto;html=1;entryX=0.5;entryY=0;entryDx=0;entryDy=0;" edge="1" parent="1" source="nMVJ9ATaJGvfscwfu6Gh-3" target="nMVJ9ATaJGvfscwfu6Gh-5">
          <mxGeometry relative="1" as="geometry" />
        </mxCell>
        <mxCell id="nMVJ9ATaJGvfscwfu6Gh-9" style="edgeStyle=orthogonalEdgeStyle;rounded=0;orthogonalLoop=1;jettySize=auto;html=1;entryX=0.5;entryY=0;entryDx=0;entryDy=0;" edge="1" parent="1" source="nMVJ9ATaJGvfscwfu6Gh-3" target="nMVJ9ATaJGvfscwfu6Gh-6">
          <mxGeometry relative="1" as="geometry" />
        </mxCell>
        <mxCell id="nMVJ9ATaJGvfscwfu6Gh-24" style="edgeStyle=orthogonalEdgeStyle;rounded=0;orthogonalLoop=1;jettySize=auto;html=1;exitX=0.5;exitY=0;exitDx=0;exitDy=0;entryX=0.4;entryY=1.033;entryDx=0;entryDy=0;entryPerimeter=0;" edge="1" parent="1" source="nMVJ9ATaJGvfscwfu6Gh-3" target="nMVJ9ATaJGvfscwfu6Gh-1">
          <mxGeometry relative="1" as="geometry" />
        </mxCell>
        <mxCell id="nMVJ9ATaJGvfscwfu6Gh-3" value="Search Input" style="rounded=0;whiteSpace=wrap;html=1;" vertex="1" parent="1">
          <mxGeometry x="365" y="100" width="120" height="60" as="geometry" />
        </mxCell>
        <mxCell id="nMVJ9ATaJGvfscwfu6Gh-4" value="Video Detail" style="rounded=0;whiteSpace=wrap;html=1;" vertex="1" parent="1">
          <mxGeometry x="290" y="300" width="120" height="60" as="geometry" />
        </mxCell>
        <mxCell id="nMVJ9ATaJGvfscwfu6Gh-10" style="edgeStyle=orthogonalEdgeStyle;rounded=0;orthogonalLoop=1;jettySize=auto;html=1;exitX=0.5;exitY=1;exitDx=0;exitDy=0;entryX=0.5;entryY=0;entryDx=0;entryDy=0;" edge="1" parent="1" source="nMVJ9ATaJGvfscwfu6Gh-5" target="nMVJ9ATaJGvfscwfu6Gh-4">
          <mxGeometry relative="1" as="geometry" />
        </mxCell>
        <mxCell id="nMVJ9ATaJGvfscwfu6Gh-5" value="Video Item" style="rounded=0;whiteSpace=wrap;html=1;" vertex="1" parent="1">
          <mxGeometry x="290" y="210" width="120" height="60" as="geometry" />
        </mxCell>
        <mxCell id="nMVJ9ATaJGvfscwfu6Gh-6" value="Video List" style="rounded=0;whiteSpace=wrap;html=1;" vertex="1" parent="1">
          <mxGeometry x="440" y="210" width="120" height="60" as="geometry" />
        </mxCell>
        <mxCell id="nMVJ9ATaJGvfscwfu6Gh-18" style="edgeStyle=orthogonalEdgeStyle;rounded=0;orthogonalLoop=1;jettySize=auto;html=1;exitX=0.5;exitY=1;exitDx=0;exitDy=0;" edge="1" parent="1" source="nMVJ9ATaJGvfscwfu6Gh-13">
          <mxGeometry relative="1" as="geometry">
            <mxPoint x="430" y="170" as="targetPoint" />
            <Array as="points">
              <mxPoint x="700" y="230" />
              <mxPoint x="590" y="230" />
              <mxPoint x="590" y="170" />
              <mxPoint x="470" y="170" />
            </Array>
          </mxGeometry>
        </mxCell>
        <mxCell id="nMVJ9ATaJGvfscwfu6Gh-13" value="YouTube&lt;br&gt;API" style="whiteSpace=wrap;html=1;aspect=fixed;fillColor=#f8cecc;strokeColor=#b85450;" vertex="1" parent="1">
          <mxGeometry x="650" y="110" width="100" height="100" as="geometry" />
        </mxCell>
        <mxCell id="nMVJ9ATaJGvfscwfu6Gh-21" value="AXIOS" style="rounded=0;whiteSpace=wrap;html=1;" vertex="1" parent="1">
          <mxGeometry x="675" y="10" width="50" height="60" as="geometry" />
        </mxCell>
      </root>
    </mxGraphModel>
  </diagram>
</mxfile>
